<svg height="512pt" viewBox="0 0 512 512" width="512pt" xmlns="http://www.w3.org/2000/svg"><path d="m512 256c0 141.386719-114.613281 256-256 256s-256-114.613281-256-256 114.613281-256 256-256 256 114.613281 256 256zm0 0" fill="#2864f0"/><path d="m512 256c0-7.464844-.339844-14.847656-.964844-22.148438l-123.339844-123.339843-66.515624 34.488281-187.1875 266.179688 99.859374 99.855468c7.300782.625 14.683594.964844 22.148438.964844 141.386719 0 256-114.613281 256-256zm0 0" fill="#27488f"/><path d="m421.941406 364.660156-63.726562 63.726563-219.753906-219.753907 63.722656-63.726562zm0 0" fill="#ffa300"/><path d="m138.453125 208.632812 32.160156-32.160156 219.753907 219.753906-32.160157 32.160157zm0 0" fill="#fa5d0f"/><path d="m403.300781 383.300781-26.449219 26.449219-219.753906-219.757812 26.449219-26.445313zm0 0" fill="#fa5d0f"/><path d="m157.089844 189.992188 13.523437-13.519532 219.753907 219.753906-13.523438 13.523438zm0 0" fill="#f24500"/><path d="m202.179688 144.90625-87.46875-23.742188 23.742187 87.46875zm0 0" fill="#fff"/><path d="m138.453125 208.632812 32.160156-32.160156-55.382812-54.789062-.519531-.519532zm0 0" fill="#e9edf5"/><path d="m124.566406 157.464844 26.449219-26.449219-36.304687-9.851563zm0 0" fill="#27488f"/><path d="m114.710938 121.164062 9.855468 36.300782 13.222656-13.222656zm0 0" fill="#1b3b6b"/><path d="m133.992188 411.179688-33.171876-33.171876 167.175782-176.785156c11.539062-13.242187 31.882812-13.941406 44.304687-1.523437 12.417969 12.421875 11.71875 32.765625-1.523437 44.304687zm0 0" fill="#fff"/><path d="m312.296875 199.703125-194.890625 194.890625 16.585938 16.585938 176.785156-167.175782c13.242187-11.539062 13.941406-31.882812 1.519531-44.300781zm0 0" fill="#e9edf5"/><path d="m293.503906 176.15625 42.335938 42.335938-18.996094 18.996093-42.335938-42.335937zm0 0" fill="#fa5d0f"/><path d="m295.671875 216.324219 18.996094-18.996094 21.167969 21.167969-18.996094 18.996094zm0 0" fill="#f24500"/><path d="m403.003906 125.816406-1.515625-1.511718-30.886719 30.886718c.652344 4.820313-.859374 9.878906-4.5625 13.582032-6.300781 6.300781-16.515624 6.300781-22.8125 0-6.300781-6.300782-6.300781-16.511719 0-22.8125 3.703126-3.703126 8.761719-5.214844 13.582032-4.5625l30.886718-30.886719-1.511718-1.511719-76.550782 25.515625-16.125 41.644531 42.335938 42.335938 41.640625-16.125zm0 0" fill="#ffdf00"/><path d="m401.488281 124.304688-30.886719 30.886718c.652344 4.820313-.859374 9.878906-4.5625 13.582032-6.300781 6.300781-16.515624 6.300781-22.8125 0l-28.554687 28.554687 21.167969 21.167969 41.644531-16.125 25.519531-76.554688zm0 0" fill="#fdba12"/></svg>