<svg id="Capa_1" enable-background="new 0 0 512 512" height="512" viewBox="0 0 512 512" width="512" xmlns="http://www.w3.org/2000/svg" xmlns:xlink="http://www.w3.org/1999/xlink"><linearGradient id="SVGID_1_" gradientUnits="userSpaceOnUse" x1="74.981" x2="437.019" y1="74.981" y2="437.019"><stop offset="0" stop-color="#dd4e4e"/><stop offset=".9932" stop-color="#c53232"/></linearGradient><linearGradient id="lg1"><stop offset="0" stop-color="#f1f1fa"/><stop offset=".9932" stop-color="#dfe5f2"/></linearGradient><linearGradient id="SVGID_2_" gradientUnits="userSpaceOnUse" x1="171.68" x2="338.32" xlink:href="#lg1" y1="181.629" y2="181.629"/><linearGradient id="SVGID_3_" gradientUnits="userSpaceOnUse" x1="190.195" x2="319.805" y1="177.309" y2="177.309"><stop offset="0" stop-color="#7f584f"/><stop offset="1" stop-color="#5b362d"/></linearGradient><linearGradient id="SVGID_4_" gradientUnits="userSpaceOnUse" x1="134.648" x2="375.352" xlink:href="#lg1" y1="358.145" y2="358.145"/><linearGradient id="SVGID_5_" gradientUnits="userSpaceOnUse" x1="171.68" x2="338.32" y1="376.66" y2="376.66"><stop offset="0" stop-color="#a8e446"/><stop offset=".9932" stop-color="#69b038"/></linearGradient><linearGradient id="SVGID_6_" gradientUnits="userSpaceOnUse" x1="190.195" x2="319.805" y1="242.761" y2="242.761"><stop offset="0" stop-color="#f5dbca"/><stop offset=".9897" stop-color="#efbeaa"/></linearGradient><g><circle cx="256" cy="256" fill="url(#SVGID_1_)" r="256"/><g><path d="m255 98c-45.946 0-83.32 37.992-83.32 83.938s37.375 83.32 83.32 83.32 83.32-37.375 83.32-83.32-37.375-83.938-83.32-83.938z" fill="url(#SVGID_2_)"/><path d="m255 135.648c-35.676 0-64.805 28.985-64.805 64.805v18.516h64.805 64.805v-18.516c0-35.558-29.043-64.805-64.805-64.805z" fill="url(#SVGID_3_)"/><path d="m351.836 268.088-3.562-8.535-8.544 3.562c-11.672 4.828-25.387 1.022-32.891-8.969l-2.549-3.39-49.29-.461-49.173-.461c-6.374 12.802-22.222 18.823-35.558 13.281l-8.544-3.562-3.562 8.535c-3.318 7.947-4.999 16.337-4.999 24.944 0 35.729 29.075 64.805 64.805 64.805l37.031-.01 35.404-.009c35.942 1.053 66.432-27.96 66.432-64.787 0-8.607-1.682-16.997-5-24.943z" fill="#7f584f"/><path d="m356.836 293.031c0-8.607-1.682-16.997-4.999-24.944l-3.562-8.535-8.544 3.562c-11.672 4.828-25.387 1.022-32.891-8.969l-2.549-3.39-49.291-.46v107.532l35.404-.009c35.942 1.053 66.432-27.96 66.432-64.787z" fill="#5b362d"/><path d="m338.32 303.226-9.258 17.579-9.258-18.516h-64.804-64.805l-9.258 18.516-9.258-17.579c-21.102 4.301-37.031 23-37.031 45.352v65.422h120.352 120.352v-65.422c0-22.352-15.929-41.051-37.032-45.352z" fill="url(#SVGID_4_)"/><path d="m190.195 357.836v-55.547h-9.258c-3.17 0-6.265.327-9.258.937v36.094z" fill="#a8e446"/><path d="m338.32 339.32v-36.094c-2.992-.61-6.088-.937-9.258-.937h-9.258v55.547z" fill="#69b038"/><path d="m255 339.32h-83.32v74.68h83.32 83.32v-74.68z" fill="url(#SVGID_5_)"/><path d="m302.585 211.191c-14.443-3.333-35.735-8.331-47.585-27.958-11.85 19.626-33.143 24.625-47.585 27.958-13.887 3.148-17.219 4.814-17.219 7.777v18.516c0 35.735 29.07 64.805 64.805 64.805s64.805-29.07 64.805-64.805v-18.516c-.001-2.962-3.334-4.628-17.221-7.777z" fill="url(#SVGID_6_)"/></g></g></svg>