<svg id="Capa_1" enable-background="new 0 0 512.004 512.004" height="512" viewBox="0 0 512.004 512.004" width="512" xmlns="http://www.w3.org/2000/svg" xmlns:xlink="http://www.w3.org/1999/xlink"><linearGradient id="SVGID_1_" gradientUnits="userSpaceOnUse" x1="256.002" x2="256.002" y1="512.002" y2=".002"><stop offset="0" stop-color="#fd3a84"/><stop offset="1" stop-color="#ffa68d"/></linearGradient><g><g><path d="m504.478 61.998-104.372-60c-2.125-1.231-4.802-1.996-7.476-1.996-2.688.004-229.363.061-273.256 0-2.515 0-5.159.668-7.476 1.996l-104.372 60c-6.509 3.742-9.249 11.72-6.413 18.671l51 125c1.578 3.867 4.697 6.901 8.606 8.373 3.908 1.47 8.255 1.245 11.99-.623l48.292-24.146v307.729c0 8.284 6.716 15 15 15h240c8.284 0 15-6.716 15-15v-307.729l48.292 24.146c3.735 1.867 8.082 2.092 11.99.623 3.909-1.471 7.028-4.505 8.606-8.373l51-125c2.838-6.952.098-14.93-6.411-18.671zm-209.667-31.996-38.809 62.097-38.809-62.097zm-112.994 0 56.498 90.398-17.687 28.3-74.189-118.698zm1.465 178.452c-1.49 2.384-2.28 5.139-2.28 7.95v265.599h-30v-317c0-5.199-2.691-10.027-7.114-12.76-4.422-2.732-9.944-2.981-14.594-.657l-55.52 27.76-39.931-97.873 80.474-46.262 88.622 141.791zm57.72 25.147v248.401h-30v-261.297l119.186-190.703h35.378l-122.284 195.649c-1.49 2.384-2.28 5.138-2.28 7.95zm197.228-54.256-55.52-27.76c-4.651-2.326-10.174-2.076-14.594.657-4.423 2.733-7.114 7.561-7.114 12.76v317h-90v-244.099l126.686-202.691 80.474 46.262z" fill="url(#SVGID_1_)"/></g></g></svg>