<svg viewBox="-124 0 512 512.00003" xmlns="http://www.w3.org/2000/svg"><path d="m231.871094 72.472656c-17.304688 0-31.328125 14.027344-31.328125 31.328125v17.617188c0 10.382812-8.421875 18.804687-18.804688 18.804687-10.386719 0-18.804687-8.421875-18.804687-18.804687v-90.085938c0-17.304687-14.027344-31.332031-31.332032-31.332031-17.304687 0-31.332031 14.027344-31.332031 31.332031v54.015625c0 10.382813-8.417969 18.800782-18.800781 18.800782-10.386719 0-18.804688-8.417969-18.804688-18.800782v-13.46875c0-17.304687-14.027343-31.332031-31.332031-31.332031-17.304687 0-31.32812475 14.027344-31.32812475 31.332031v99.628906l2.50390575 20.578126h258.191407l2.507812-20.578126v-67.707031c-.003906-17.300781-14.03125-31.328125-31.335937-31.328125zm0 0" fill="#ff73a5"/><path d="m231.871094 72.472656c-17.304688 0-31.328125 14.027344-31.328125 31.328125v17.617188c0 10.382812-8.421875 18.804687-18.804688 18.804687-10.386719 0-18.804687-8.421875-18.804687-18.804687v-90.085938c0-17.304687-14.027344-31.332031-31.332032-31.332031v192.085938h129.097657l2.507812-20.578126v-67.707031c-.003906-17.300781-14.03125-31.328125-31.335937-31.328125zm0 0" fill="#ff468c"/><path d="m0 171.511719 16.210938 133.085937v20.691406h230.78125v-20.691406l16.210937-133.085937zm0 0" fill="#dc934b"/><path d="m105.28125 171.511719 3.746094 153.777343h45.148437l3.746094-153.777343zm0 0" fill="#c7732e"/><path d="m52.640625 171.511719 11.238281 153.777343h45.148438l-3.746094-153.777343zm0 0" fill="#d1813b"/><path d="m157.921875 171.511719-3.746094 153.777343h45.148438l11.238281-153.777343zm0 0" fill="#bc6829"/><path d="m246.992188 304.597656 16.210937-133.085937h-52.640625l-11.238281 153.777343h47.667969zm0 0" fill="#ab5a1d"/><path d="m16.210938 304.597656v48.242188h84.855468v128.621094c0 16.851562 13.648438 30.519531 30.5 30.539062 16.878906.019531 30.570313-13.65625 30.570313-30.539062v-128.621094h84.855469v-48.242188zm0 0" fill="#dce1eb"/><path d="m131.601562 304.597656v207.402344c16.859376.019531 30.535157-13.640625 30.535157-30.5v-128.660156h84.855469v-48.242188zm0 0" fill="#cdd2e1"/></svg>