<svg height="512" viewBox="0 0 512 512" width="512" xmlns="http://www.w3.org/2000/svg" xmlns:xlink="http://www.w3.org/1999/xlink"><linearGradient id="New_Gradient_Swatch_5" gradientUnits="userSpaceOnUse" x1="71.515" x2="440.485" y1="552.486" y2="183.515"><stop offset=".011" stop-color="#f8c73f"/><stop offset="1" stop-color="#fada7f"/></linearGradient><linearGradient id="New_Gradient_Swatch_22" gradientUnits="userSpaceOnUse" x1="73.515" x2="438.485" y1="434.485" y2="69.515"><stop offset=".011" stop-color="#dcdce3"/><stop offset="1" stop-color="#ededf1"/></linearGradient><linearGradient id="New_Gradient_Swatch_12" gradientUnits="userSpaceOnUse" x1="179.324" x2="332.676" y1="291.112" y2="137.76"><stop offset=".011" stop-color="#80d1cb"/><stop offset="1" stop-color="#bfe8e5"/></linearGradient><linearGradient id="New_Gradient_Swatch_8" gradientUnits="userSpaceOnUse" x1="72.748" x2="439.252" y1="553.718" y2="187.213"><stop offset=".011" stop-color="#fad46a"/><stop offset="1" stop-color="#fce6aa"/></linearGradient><linearGradient id="New_Gradient_Swatch_20" gradientUnits="userSpaceOnUse" x1="143.907" x2="368.093" y1="619.963" y2="395.776"><stop offset=".011" stop-color="#fce6aa"/><stop offset="1" stop-color="#fdf3d4"/></linearGradient><g id="_19-mail" data-name="19-mail"><g id="gradient"><path d="m488.485 231.515-224-224a12 12 0 0 0 -16.97 0l-224 224a12 12 0 0 0 -3.515 8.485v256a12 12 0 0 0 12 12h448a12 12 0 0 0 12-12v-256a12 12 0 0 0 -3.515-8.485z" fill="url(#New_Gradient_Swatch_5)"/><rect fill="url(#New_Gradient_Swatch_22)" height="400" rx="12" width="344" x="84" y="52"/><path d="m359.172 188.106-16.222-2.006-5.429-13.108 10.051-12.89a6 6 0 0 0 -.488-7.932l-28.815-28.816a6 6 0 0 0 -7.933-.49l-12.891 10.052-13.107-5.43-2.007-16.221a6 6 0 0 0 -5.955-5.265h-40.752a6 6 0 0 0 -5.955 5.264l-2.007 16.221-13.107 5.43-12.891-10.052a6 6 0 0 0 -7.933.49l-28.815 28.816a6 6 0 0 0 -.488 7.932l10.051 12.89-5.429 13.109-16.222 2.007a6 6 0 0 0 -5.264 5.955v40.751a6 6 0 0 0 5.264 5.955l16.222 2.006 5.429 13.108-10.051 12.89a6 6 0 0 0 .488 7.932l28.815 28.817a6 6 0 0 0 7.933.489l12.891-10.052 13.107 5.43 2.007 16.221a6 6 0 0 0 5.955 5.264h40.752a6 6 0 0 0 5.955-5.264l2.007-16.221 13.107-5.43 12.891 10.052a6 6 0 0 0 7.933-.489l28.815-28.821a6 6 0 0 0 .488-7.932l-10.051-12.89 5.429-13.108 16.222-2.006a6 6 0 0 0 5.264-5.955v-40.748a6 6 0 0 0 -5.264-5.955zm-63.172 26.327a39.969 39.969 0 1 1 -11.716-28.283 39.738 39.738 0 0 1 11.716 28.283z" fill="url(#New_Gradient_Swatch_12)"/><path d="m256 393s-236-157.545-236-153v256a12 12 0 0 0 12 12h448a12 12 0 0 0 12-12v-256c0-4.545-236 153-236 153z" fill="url(#New_Gradient_Swatch_8)"/><path d="m262.228 349.742a12.007 12.007 0 0 0 -12.456 0s-223.154 158.258-217.772 158.258h448c5.382 0-217.772-158.258-217.772-158.258z" fill="url(#New_Gradient_Swatch_20)"/></g></g></svg>